<svg xmlns="http://www.w3.org/2000/svg">
    <defs>
        <symbol id="utensils" viewBox="0 0 448 512">
            <path d="M416 0C400 0 288 32 288 176l0 112c0 35.3 28.7 64 64 64l32 0 0 128c0 17.7 14.3 32 32 32s32-14.3 32-32l0-128 0-112 0-208c0-17.7-14.3-32-32-32zM64 16C64 7.8 57.9 1 49.7 .1S34.2 4.6 32.4 12.5L2.1 148.8C.7 155.1 0 161.5 0 167.9c0 45.9 35.1 83.6 80 87.7L80 480c0 17.7 14.3 32 32 32s32-14.3 32-32l0-224.4c44.9-4.1 80-41.8 80-87.7c0-6.4-.7-12.8-2.1-19.1L191.6 12.5c-1.8-8-9.3-13.3-17.4-12.4S160 7.8 160 16l0 134.2c0 5.4-4.4 9.8-9.8 9.8c-5.1 0-9.3-3.9-9.8-9L127.9 14.6C127.2 6.3 120.3 0 112 0s-15.2 6.3-15.9 14.6L83.7 151c-.5 5.1-4.7 9-9.8 9c-5.4 0-9.8-4.4-9.8-9.8L64 16zm48.3 152l-.3 0-.3 0 .3-.7 .3 .7z"/>
        </symbol>

        <symbol id="chef" viewBox="0 0 448 512">
            <path id="svg_8" d="m48.214,44.685l-7.214,-2.405l0,-4.975c1.256,-1.787 2,-3.959 2,-6.305l0,-6l4,0l0,-6l-1.153,0l-3,-18l-21.694,0l-3,18l-1.153,0l0,6l4,0l0,6c0,2.346 0.744,4.517 2,6.305l0,4.975l-7.214,2.405c-2.862,0.953 -4.786,3.622 -4.786,6.639l0,11.676l42,0l0,-11.676c0,-3.017 -1.924,-5.686 -4.786,-6.639zm-23.214,-5.206c1.661,1.374 3.733,2.265 6,2.471l0,3.18l-6,-2.769l0,-2.882zm8,2.47c2.267,-0.206 4.339,-1.097 6,-2.471l0,2.882l-6,2.769l0,-3.18zm10.82,-22.949l-4.874,0l-0.889,-16l3.097,0l2.666,16zm-16.763,0l0.889,-16l3.054,0l0,16l-3.943,0zm5.943,-16l3.054,0l0.889,16l-3.943,0l0,-16zm-10.153,0l3.097,0l-0.889,16l-4.875,0l2.667,-16zm-3.847,18l26,0l0,2l-26,0l0,-2zm22,4l0,6c0,4.963 -4.037,9 -9,9s-9,-4.037 -9,-9l0,-6l18,0zm-28,26.324c0,-2.155 1.374,-4.062 3.419,-4.743l7.521,-2.507l12.06,5.566l0,11.36l-15,0l0,-2.414l-0.879,-0.879c-0.713,-0.713 -1.121,-1.699 -1.121,-2.707s0.408,-1.994 1.121,-2.707l0.879,-0.879l0,-2.414l-2,0l0,1.586l-0.293,0.293c-1.085,1.085 -1.707,2.587 -1.707,4.121s0.622,3.036 1.707,4.121l0.293,0.293l0,1.586l-6,0l0,-9.676zm38,9.676l-6,0l0,-1.586l0.293,-0.293c1.085,-1.085 1.707,-2.587 1.707,-4.121s-0.622,-3.036 -1.707,-4.121l-0.293,-0.293l0,-1.586l-2,0l0,2.414l0.879,0.879c0.713,0.713 1.121,1.699 1.121,2.707s-0.408,1.994 -1.121,2.707l-0.879,0.879l0,2.414l-5,0l0,-12.64l-3.614,-1.668l5.673,-2.619l7.521,2.507c2.046,0.683 3.42,2.589 3.42,4.744l0,9.676z"/>
            <circle id="svg_9" r="1" cy="28" cx="27"/>
            <circle id="svg_10" r="1" cy="28" cx="37"/>
            <path id="svg_11" d="m32,37c2.206,0 4,-1.794 4,-4l-2,0c0,1.103 -0.897,2 -2,2s-2,-0.897 -2,-2l-2,0c0,2.206 1.794,4 4,4z"/>
            <rect id="svg_12" y="51" x="32" width="2" height="2"/>
            <rect id="svg_13" y="51" x="26" width="2" height="2"/>
            <rect id="svg_14" y="56" x="32" width="2" height="2"/>
            <rect id="svg_15" y="56" x="26" width="2" height="2"/>
        </symbol>

        <symbol id="kitchen" viewBox="0 0 576 512">
            <path d="M240 144A96 96 0 1 0 48 144a96 96 0 1 0 192 0zm44.4 32C269.9 240.1 212.5 288 144 288C64.5 288 0 223.5 0 144S64.5 0 144 0c68.5 0 125.9 47.9 140.4 112l71.8 0c8.8-9.8 21.6-16 35.8-16l104 0c26.5 0 48 21.5 48 48s-21.5 48-48 48l-104 0c-14.2 0-27-6.2-35.8-16l-71.8 0zM144 80a64 64 0 1 1 0 128 64 64 0 1 1 0-128zM400 240c13.3 0 24 10.7 24 24l0 8 96 0c13.3 0 24 10.7 24 24s-10.7 24-24 24l-240 0c-13.3 0-24-10.7-24-24s10.7-24 24-24l96 0 0-8c0-13.3 10.7-24 24-24zM288 464l0-112 224 0 0 112c0 26.5-21.5 48-48 48l-128 0c-26.5 0-48-21.5-48-48zM48 320l80 0 16 0 32 0c26.5 0 48 21.5 48 48s-21.5 48-48 48l-16 0c0 17.7-14.3 32-32 32l-64 0c-17.7 0-32-14.3-32-32l0-80c0-8.8 7.2-16 16-16zm128 64c8.8 0 16-7.2 16-16s-7.2-16-16-16l-16 0 0 32 16 0zM24 464l176 0c13.3 0 24 10.7 24 24s-10.7 24-24 24L24 512c-13.3 0-24-10.7-24-24s10.7-24 24-24z"/>
        </symbol>
    </defs>
</svg>