<svg xmlns="http://www.w3.org/2000/svg">
    <defs>
        <symbol id="utensils" viewBox="0 0 448 512">
            <path d="M416 0C400 0 288 32 288 176l0 112c0 35.3 28.7 64 64 64l32 0 0 128c0 17.7 14.3 32 32 32s32-14.3 32-32l0-128 0-112 0-208c0-17.7-14.3-32-32-32zM64 16C64 7.8 57.9 1 49.7 .1S34.2 4.6 32.4 12.5L2.1 148.8C.7 155.1 0 161.5 0 167.9c0 45.9 35.1 83.6 80 87.7L80 480c0 17.7 14.3 32 32 32s32-14.3 32-32l0-224.4c44.9-4.1 80-41.8 80-87.7c0-6.4-.7-12.8-2.1-19.1L191.6 12.5c-1.8-8-9.3-13.3-17.4-12.4S160 7.8 160 16l0 134.2c0 5.4-4.4 9.8-9.8 9.8c-5.1 0-9.3-3.9-9.8-9L127.9 14.6C127.2 6.3 120.3 0 112 0s-15.2 6.3-15.9 14.6L83.7 151c-.5 5.1-4.7 9-9.8 9c-5.4 0-9.8-4.4-9.8-9.8L64 16zm48.3 152l-.3 0-.3 0 .3-.7 .3 .7z"/>
        </symbol>

        <symbol id="kitchen" viewBox="0 0 576 512">
            <path d="M240 144A96 96 0 1 0 48 144a96 96 0 1 0 192 0zm44.4 32C269.9 240.1 212.5 288 144 288C64.5 288 0 223.5 0 144S64.5 0 144 0c68.5 0 125.9 47.9 140.4 112l71.8 0c8.8-9.8 21.6-16 35.8-16l104 0c26.5 0 48 21.5 48 48s-21.5 48-48 48l-104 0c-14.2 0-27-6.2-35.8-16l-71.8 0zM144 80a64 64 0 1 1 0 128 64 64 0 1 1 0-128zM400 240c13.3 0 24 10.7 24 24l0 8 96 0c13.3 0 24 10.7 24 24s-10.7 24-24 24l-240 0c-13.3 0-24-10.7-24-24s10.7-24 24-24l96 0 0-8c0-13.3 10.7-24 24-24zM288 464l0-112 224 0 0 112c0 26.5-21.5 48-48 48l-128 0c-26.5 0-48-21.5-48-48zM48 320l80 0 16 0 32 0c26.5 0 48 21.5 48 48s-21.5 48-48 48l-16 0c0 17.7-14.3 32-32 32l-64 0c-17.7 0-32-14.3-32-32l0-80c0-8.8 7.2-16 16-16zm128 64c8.8 0 16-7.2 16-16s-7.2-16-16-16l-16 0 0 32 16 0zM24 464l176 0c13.3 0 24 10.7 24 24s-10.7 24-24 24L24 512c-13.3 0-24-10.7-24-24s10.7-24 24-24z"/>
        </symbol>
    </defs>
</svg>